<?xml version="1.0" encoding="UTF-8"?> <!-- Generator: Adobe Illustrator 25.2.1, SVG Export Plug-In . SVG Version: 6.00 Build 0) --> <svg xmlns="http://www.w3.org/2000/svg" xmlns:xlink="http://www.w3.org/1999/xlink" version="1.1" id="Camada_1" x="0px" y="0px" viewBox="0 0 300 41" style="enable-background:new 0 0 300 41;" xml:space="preserve"> <style type="text/css"> .st0{fill:#51BAB4;} .st1{fill:#010101;} .st2{fill:#FFFFFF;} .st3{fill:#17303B;} .st4{opacity:0.6;fill-rule:evenodd;clip-rule:evenodd;fill:#BCB6B1;} .st5{fill-rule:evenodd;clip-rule:evenodd;fill:#FFFFFF;stroke:#17303B;stroke-width:0.25;stroke-miterlimit:10;} .st6{fill-rule:evenodd;clip-rule:evenodd;fill:#17303B;} .st7{fill:#00003D;} .st8{fill:#8C8F82;} .st9{fill:none;stroke:#FFFFFF;stroke-miterlimit:10;} </style> <g> <g> <polygon class="st0" points="18.1,0.1 1,40.9 15.7,37.6 9.8,35 18.2,15.3 26.3,35 20.3,37.6 35.3,40.9 "></polygon> <g> <g> <path class="st2" d="M52,19.2h-4.6l-0.9,2.1h-2.3l4.4-9.8h2.2l4.4,9.8h-2.4L52,19.2z M51.3,17.4l-1.6-3.8l-1.6,3.8H51.3z"></path> <path class="st2" d="M60.4,20c0-0.8,0.6-1.3,1.4-1.3s1.4,0.5,1.4,1.3c0,0.8-0.6,1.4-1.4,1.4S60.4,20.8,60.4,20z"></path> <path class="st2" d="M77.6,15c0,2.2-1.6,3.5-4.3,3.5h-2v2.7h-2.3v-9.8h4.3C76,11.4,77.6,12.8,77.6,15z M75.3,15 c0-1.1-0.7-1.7-2.1-1.7h-1.9v3.4h1.9C74.6,16.7,75.3,16.1,75.3,15z"></path> <path class="st2" d="M83.6,11.4h2.3v8h4.9v1.9h-7.2V11.4z"></path> <path class="st2" d="M102.9,19.2h-4.6l-0.9,2.1h-2.3l4.4-9.8h2.2l4.4,9.8h-2.4L102.9,19.2z M102.2,17.4l-1.6-3.8l-1.6,3.8H102.2 z"></path> <path class="st2" d="M115.7,17.8v3.5h-2.3v-3.5l-3.8-6.3h2.4l2.6,4.4l2.6-4.4h2.2L115.7,17.8z"></path> <path class="st2" d="M132.3,19.4v1.8h-7.6v-9.8h7.4v1.8h-5.2v2.1h4.6v1.8h-4.6v2.3H132.3z"></path> <path class="st2" d="M144.7,21.3l-1.9-2.7h-0.1h-2v2.7h-2.3v-9.8h4.3c2.6,0,4.3,1.4,4.3,3.6c0,1.5-0.7,2.6-2,3.1l2.2,3.2H144.7z M142.5,13.3h-1.9v3.4h1.9c1.4,0,2.1-0.6,2.1-1.7C144.6,13.9,143.9,13.3,142.5,13.3z"></path> <path class="st2" d="M152.3,20.3l0.8-1.7c0.8,0.6,2.1,1,3.2,1c1.3,0,1.9-0.4,1.9-1.1c0-1.8-5.7-0.6-5.7-4.2 c0-1.7,1.3-3.1,4.1-3.1c1.2,0,2.5,0.3,3.4,0.9l-0.7,1.7c-0.9-0.5-1.9-0.8-2.7-0.8c-1.3,0-1.9,0.5-1.9,1.1c0,1.8,5.7,0.6,5.7,4.2 c0,1.6-1.4,3-4.2,3C154.7,21.4,153.1,21,152.3,20.3z"></path> </g> <g> <path class="st2" d="M69,28.9h0.5v3.5H69V28.9z"></path> <path class="st2" d="M77.7,28.9v3.5h-0.4l-2.1-2.6v2.6h-0.5v-3.5h0.4l2.1,2.6v-2.6H77.7z"></path> <path class="st2" d="M85.9,28.9l-1.5,3.5h-0.5l-1.5-3.5h0.5l1.2,2.8l1.3-2.8H85.9z"></path> <path class="st2" d="M93,32v0.4h-2.5v-3.5H93v0.4h-2v1.1h1.7v0.4H91V32H93z"></path> <path class="st2" d="M97.7,32l0.2-0.4c0.3,0.2,0.7,0.4,1.1,0.4c0.6,0,0.9-0.2,0.9-0.5c0-0.8-2.1-0.3-2.1-1.6c0-0.5,0.4-1,1.3-1 c0.4,0,0.8,0.1,1.1,0.3l-0.2,0.4c-0.3-0.2-0.6-0.3-1-0.3c-0.6,0-0.8,0.2-0.8,0.5c0,0.8,2.1,0.3,2.1,1.6c0,0.5-0.4,1-1.3,1 C98.5,32.5,98,32.3,97.7,32z"></path> <path class="st2" d="M105.9,29.4h-1.2v-0.4h2.9v0.4h-1.2v3h-0.5V29.4z"></path> <path class="st2" d="M112.4,28.9h0.5v3.5h-0.5V28.9z"></path> <path class="st2" d="M121.3,32.4l0-2.5L120,32h-0.2l-1.3-2.1v2.5h-0.5v-3.5h0.4l1.4,2.4l1.4-2.4h0.4l0,3.5H121.3z"></path> <path class="st2" d="M129.5,32v0.4H127v-3.5h2.4v0.4h-2v1.1h1.7v0.4h-1.7V32H129.5z"></path> <path class="st2" d="M137.5,28.9v3.5h-0.4l-2.1-2.6v2.6h-0.5v-3.5h0.4l2.1,2.6v-2.6H137.5z"></path> <path class="st2" d="M143.4,29.4h-1.2v-0.4h2.9v0.4h-1.2v3h-0.5V29.4z"></path> <path class="st2" d="M149.5,30.7c0-1,0.8-1.8,1.8-1.8c1.1,0,1.8,0.8,1.8,1.8c0,1-0.8,1.8-1.8,1.8 C150.3,32.5,149.5,31.7,149.5,30.7z M152.7,30.7c0-0.8-0.6-1.3-1.3-1.3c-0.8,0-1.4,0.6-1.4,1.3c0,0.8,0.6,1.3,1.4,1.3 C152.1,32,152.7,31.5,152.7,30.7z"></path> <path class="st2" d="M157.8,32l0.2-0.4c0.3,0.2,0.7,0.4,1.1,0.4c0.6,0,0.9-0.2,0.9-0.5c0-0.8-2.1-0.3-2.1-1.6c0-0.5,0.4-1,1.3-1 c0.4,0,0.8,0.1,1.1,0.3l-0.2,0.4c-0.3-0.2-0.6-0.3-1-0.3c-0.6,0-0.8,0.2-0.8,0.5c0,0.8,2.1,0.3,2.1,1.6c0,0.5-0.4,1-1.3,1 C158.6,32.5,158.1,32.3,157.8,32z"></path> </g> </g> </g> <g transform="translate(-1261.428 -469.536)"> <path class="st2" d="M1459.4,482.5c0-1.2-0.9-2.2-2.9-2.2c-1.4,0-2.5,0.5-2.6,1.6c-0.1,1,0.3,1.2,0.9,1.4c0.3,0.4,3,0.8,3.6,0.9 c0.8,0.1,2.5,0.5,3.4,1.4c1.6,1.7,0.9,5.1-0.9,6.2c-1.2,0.8-2.9,1-4.4,1c-0.7,0-2.4-0.2-3.5-1c-1.2-0.9-1.9-2.2-2-3.7h2.8 c0,0.5,0.2,1.1,0.6,1.5c0.6,0.7,1.7,0.9,2.7,0.8c1,0,1.9-0.3,2.3-0.7c0.7-0.6,0.7-1.7,0.1-2.4c0,0,0,0,0,0c-0.9-1-3.7-1-5.6-1.6 c-1.5-0.5-2.8-1.6-2.6-3.9c0.2-2.3,1.9-3.9,5.3-3.9c0.8,0,3.4,0.1,4.8,1.8c0.7,1,0.9,2.3,0.8,2.8L1459.4,482.5z"></path> <path class="st2" d="M1470.2,492.4c-0.2-0.3-0.3-0.7-0.3-1.1c-1,0.9-1.8,1.5-3.4,1.5c-2.1,0-3.2-1.2-3.1-3.3 c0.1-1.5,0.6-2.9,3.1-3.3c0.9,0,1.9-0.2,2.8-0.5c0.5-0.2,0.8-0.7,0.7-1.2c0-0.7-0.5-1-1.8-1c-1.6,0-1.8,1-1.8,1.7h-2.6 c0-3.4,2.9-3.7,4.4-3.7c0.8,0,1.7,0.1,2.5,0.4c1.1,0.4,1.9,1.3,1.9,3v5.8c0,0.5,0.2,0.9,0.6,1.2v0.4H1470.2z M1469.9,487.5 c-0.8,0.5-1.8,0.4-2.5,0.6c-0.8,0.2-1.4,0.9-1.2,1.7c0.2,0.6,0.6,1.1,1.8,0.9c1.6-0.3,1.9-1.4,1.9-2.6V487.5z"></path> <path class="st2" d="M1473.6,481.9h1.5v-1c0-1.6,0.8-2.6,2.6-2.6h1.7v2h-1c-0.4,0-0.6,0.2-0.6,0.7v0.9h1.6v1.8h-1.6v8.8h-2.7v-8.8 h-1.5V481.9z"></path> <path class="st2" d="M1480.6,481.9h2.7v2h0c0.2-0.6,0.3-1,1.3-1.7c0.5-0.5,1.2-0.7,2-0.6v2.8c-1.2-0.1-2.9-0.3-3.3,2v5.9h-2.7 L1480.6,481.9z"></path> <path class="st2" d="M1493.9,492.4c-0.2-0.3-0.3-0.7-0.3-1.1c-1,0.9-1.8,1.5-3.4,1.5c-2.1,0-3.2-1.2-3.1-3.3 c0.1-1.5,0.6-2.9,3.1-3.3c0.9,0,1.9-0.2,2.8-0.5c0.5-0.2,0.8-0.7,0.7-1.2c0-0.7-0.5-1-1.8-1c-1.6,0-1.8,1-1.8,1.7h-2.6 c0-3.4,2.9-3.7,4.4-3.7c0.8,0,1.7,0.1,2.5,0.4c1.1,0.4,1.9,1.3,1.9,3v5.8c0,0.5,0.2,0.9,0.6,1.2v0.4H1493.9z M1493.6,487.5 c-0.8,0.5-1.8,0.4-2.5,0.6c-0.8,0.2-1.4,0.9-1.2,1.7c0.2,0.6,0.6,1.1,1.8,0.9c1.6-0.3,1.9-1.4,1.9-2.6L1493.6,487.5z"></path> <rect x="1502.7" y="477.8" class="st2" width="2.1" height="14.7"></rect> <path class="st2" d="M1517.4,482.5c0.8,0.8,1.3,2,1.3,3.6v6.4h-2v-6.2c0-1.1-0.3-1.9-0.8-2.4c-0.5-0.5-1.3-0.8-2.2-0.8 c-1.1,0-2,0.3-2.6,1c-0.6,0.6-0.9,1.6-0.9,2.7v5.7h-2v-11.1h1.9v1.7c0.4-0.6,1-1,1.6-1.3c0.7-0.3,1.6-0.5,2.4-0.5 C1515.4,481.3,1516.6,481.7,1517.4,482.5"></path> <path class="st2" d="M1531.4,481.4l-4.9,11.1h-2.1l-4.9-11.1h2.1l3.8,8.9l3.9-8.9H1531.4z"></path> <path class="st2" d="M1542.5,487.6h-9c0.1,0.9,0.6,1.8,1.3,2.4c0.8,0.6,1.8,0.9,2.7,0.9c1.2,0,2.4-0.4,3.2-1.3l1.1,1.3 c-0.5,0.6-1.2,1.1-1.9,1.3c-1.8,0.7-3.9,0.6-5.6-0.3c-0.9-0.5-1.6-1.2-2.1-2c-0.5-0.9-0.8-1.9-0.7-2.9c0-1,0.2-2,0.7-2.9 c0.5-0.8,1.2-1.6,2-2c0.9-0.5,1.9-0.7,2.9-0.7c1,0,2,0.2,2.8,0.7c0.8,0.5,1.5,1.2,2,2c0.5,0.9,0.7,1.9,0.7,3 C1542.5,487.2,1542.5,487.4,1542.5,487.6 M1534.6,483.9c-0.7,0.6-1.1,1.4-1.1,2.3h7.1c-0.1-0.9-0.5-1.7-1.1-2.3 C1538,482.7,1536,482.7,1534.6,483.9"></path> <path class="st2" d="M1545,492.3c-0.7-0.2-1.4-0.5-2-0.9l0.8-1.6c0.5,0.4,1.1,0.7,1.8,0.8c0.7,0.2,1.4,0.3,2.1,0.3 c1.8,0,2.6-0.5,2.6-1.5c0-0.3-0.1-0.6-0.4-0.8c-0.3-0.2-0.6-0.4-0.9-0.4c-0.4-0.1-0.9-0.2-1.5-0.3c-0.7-0.1-1.5-0.3-2.2-0.5 c-0.6-0.2-1.1-0.5-1.5-0.9c-0.4-0.5-0.7-1.2-0.6-1.8c0-1,0.5-1.9,1.3-2.4c0.8-0.6,2-0.9,3.4-0.9c0.8,0,1.5,0.1,2.2,0.3 c0.6,0.1,1.3,0.4,1.8,0.7l-0.9,1.6c-1-0.6-2.1-0.9-3.2-0.9c-0.9,0-1.5,0.1-2,0.4c-0.4,0.2-0.7,0.6-0.7,1.1c0,0.3,0.1,0.6,0.4,0.9 c0.3,0.2,0.6,0.4,0.9,0.5c0.4,0.1,0.9,0.2,1.6,0.3c0.7,0.1,1.5,0.3,2.2,0.5c0.5,0.2,1,0.5,1.4,0.9c0.4,0.5,0.6,1.1,0.6,1.8 c0,1-0.5,1.9-1.3,2.4c-0.9,0.6-2,0.9-3.5,0.9C1546.8,492.7,1545.9,492.5,1545,492.3"></path> <path class="st2" d="M1560.4,491.9c-0.3,0.3-0.7,0.5-1.1,0.6c-0.4,0.1-0.9,0.2-1.3,0.2c-1.1,0-2-0.3-2.6-0.9 c-0.6-0.6-0.9-1.5-0.9-2.6V483h-1.9v-1.7h1.9v-2.4h2v2.4h3.2v1.7h-3.2v6c0,0.5,0.1,1,0.5,1.4c0.3,0.3,0.8,0.5,1.3,0.5 c0.6,0,1.1-0.2,1.6-0.5L1560.4,491.9z"></path> <path class="st2" d="M1454.5,499.9h-2.4l-0.5,1.1h-0.7l2-4.4h0.6l2,4.4h-0.7L1454.5,499.9z M1454.2,499.4l-1-2.2l-1,2.2H1454.2z"></path> <path class="st2" d="M1459.1,497.6v2.9c0,0.5-0.1,0.9-0.4,1.3c-0.4,0.3-0.8,0.5-1.3,0.4c-0.3,0-0.6,0-0.9-0.1 c-0.3-0.1-0.5-0.2-0.7-0.4l0.3-0.5c0.2,0.1,0.4,0.3,0.6,0.3c0.2,0.1,0.5,0.1,0.7,0.1c0.3,0,0.6-0.1,0.9-0.3 c0.2-0.2,0.3-0.5,0.3-0.8v-0.3c-0.1,0.2-0.3,0.3-0.5,0.4c-0.2,0.1-0.4,0.1-0.7,0.1c-0.3,0-0.6-0.1-0.9-0.2 c-0.3-0.1-0.5-0.3-0.6-0.6c-0.3-0.5-0.3-1.2,0-1.7c0.1-0.2,0.4-0.4,0.6-0.6c0.3-0.1,0.6-0.2,0.9-0.2c0.2,0,0.5,0,0.7,0.1 c0.2,0.1,0.4,0.2,0.5,0.4v-0.5H1459.1z M1458,500.2c0.2-0.1,0.3-0.2,0.4-0.4c0.1-0.2,0.2-0.4,0.1-0.6c0-0.3-0.1-0.6-0.3-0.8 c-0.5-0.4-1.2-0.4-1.7,0c-0.2,0.2-0.3,0.5-0.3,0.8c0,0.2,0,0.4,0.1,0.6c0.1,0.2,0.2,0.3,0.4,0.4c0.2,0.1,0.4,0.1,0.6,0.1 C1457.6,500.3,1457.8,500.3,1458,500.2"></path> <path class="st2" d="M1463.1,499.5h-2.7c0,0.3,0.2,0.5,0.4,0.7c0.2,0.2,0.5,0.3,0.8,0.3c0.4,0,0.7-0.1,1-0.4l0.3,0.4 c-0.2,0.2-0.3,0.3-0.6,0.4c-0.6,0.2-1.2,0.2-1.7-0.1c-0.3-0.1-0.5-0.4-0.6-0.6c-0.2-0.3-0.2-0.6-0.2-0.9c0-0.3,0.1-0.6,0.2-0.9 c0.1-0.3,0.3-0.5,0.6-0.6c0.3-0.1,0.6-0.2,0.9-0.2c0.3,0,0.6,0.1,0.9,0.2c0.3,0.1,0.5,0.4,0.6,0.6c0.1,0.3,0.2,0.6,0.2,0.9 C1463.1,499.4,1463.1,499.4,1463.1,499.5 M1460.7,498.4c-0.2,0.2-0.3,0.4-0.3,0.7h2.2c0-0.3-0.1-0.5-0.3-0.7 C1461.7,498,1461.1,498,1460.7,498.4"></path> <path class="st2" d="M1466.5,498c0.3,0.3,0.4,0.7,0.4,1.1v1.9h-0.6v-1.9c0-0.3-0.1-0.5-0.2-0.7c-0.2-0.2-0.4-0.3-0.7-0.2 c-0.3,0-0.6,0.1-0.8,0.3c-0.2,0.2-0.3,0.5-0.3,0.8v1.7h-0.6v-3.4h0.6v0.5c0.1-0.2,0.3-0.3,0.5-0.4c0.2-0.1,0.5-0.1,0.7-0.1 C1465.8,497.6,1466.2,497.7,1466.5,498"></path> <path class="st2" d="M1469.6,500.8c-0.1,0.1-0.2,0.1-0.3,0.2c-0.1,0-0.3,0.1-0.4,0.1c-0.3,0-0.6-0.1-0.8-0.3 c-0.2-0.2-0.3-0.5-0.3-0.8v-1.8h-0.6v-0.5h0.6v-0.7h0.6v0.7h1v0.5h-1v1.8c0,0.2,0,0.3,0.1,0.4c0.1,0.1,0.2,0.2,0.4,0.1 c0.2,0,0.3-0.1,0.5-0.2L1469.6,500.8z"></path> <path class="st2" d="M1473.1,499.5h-2.7c0,0.3,0.2,0.5,0.4,0.7c0.2,0.2,0.5,0.3,0.8,0.3c0.4,0,0.7-0.1,1-0.4l0.3,0.4 c-0.2,0.2-0.3,0.3-0.6,0.4c-0.6,0.2-1.2,0.2-1.7-0.1c-0.3-0.1-0.5-0.4-0.6-0.6c-0.2-0.3-0.2-0.6-0.2-0.9c0-0.3,0.1-0.6,0.2-0.9 c0.1-0.3,0.3-0.5,0.6-0.6c0.3-0.1,0.6-0.2,0.9-0.2c0.3,0,0.6,0.1,0.9,0.2c0.3,0.1,0.5,0.4,0.6,0.6c0.1,0.3,0.2,0.6,0.2,0.9 C1473.1,499.4,1473.1,499.4,1473.1,499.5 M1470.8,498.4c-0.2,0.2-0.3,0.4-0.3,0.7h2.2c0-0.3-0.1-0.5-0.3-0.7 C1471.8,498,1471.2,498,1470.8,498.4"></path> <path class="st2" d="M1478.1,499.9h-2.4l-0.5,1.1h-0.7l2-4.4h0.6l2,4.4h-0.7L1478.1,499.9z M1477.9,499.4l-1-2.2l-1,2.2H1477.9z"></path> <path class="st2" d="M1482.7,497.6v3.4h-0.6v-0.5c-0.1,0.2-0.3,0.3-0.5,0.4c-0.2,0.1-0.4,0.1-0.7,0.1c-0.4,0-0.8-0.1-1.1-0.4 c-0.3-0.3-0.4-0.7-0.4-1.1v-1.9h0.6v1.9c0,0.3,0.1,0.5,0.2,0.7c0.2,0.2,0.4,0.3,0.7,0.3c0.3,0,0.6-0.1,0.8-0.3 c0.2-0.2,0.3-0.5,0.3-0.8v-1.7H1482.7z"></path> <path class="st2" d="M1485.5,500.8c-0.1,0.1-0.2,0.1-0.3,0.2c-0.1,0-0.3,0.1-0.4,0.1c-0.3,0-0.6-0.1-0.8-0.3 c-0.2-0.2-0.3-0.5-0.3-0.8v-1.8h-0.6v-0.5h0.6v-0.7h0.6v0.7h1v0.5h-1v1.8c0,0.2,0,0.3,0.1,0.4c0.1,0.1,0.2,0.2,0.4,0.1 c0.2,0,0.3-0.1,0.5-0.2L1485.5,500.8z"></path> <path class="st2" d="M1486.5,500.8c-0.3-0.1-0.5-0.4-0.6-0.6c-0.3-0.6-0.3-1.2,0-1.8c0.1-0.3,0.4-0.5,0.6-0.6 c0.6-0.3,1.2-0.3,1.8,0c0.3,0.1,0.5,0.4,0.6,0.6c0.3,0.6,0.3,1.2,0,1.8c-0.1,0.3-0.4,0.5-0.6,0.6 C1487.8,501.1,1487.1,501.1,1486.5,500.8 M1488,497.1l-0.6-0.5l-0.6,0.5h-0.6l0.8-0.8h0.6l0.8,0.8H1488z M1488,500.3 c0.2-0.1,0.3-0.2,0.4-0.4c0.2-0.4,0.2-0.8,0-1.2c-0.1-0.2-0.2-0.3-0.4-0.4c-0.4-0.2-0.8-0.2-1.2,0c-0.2,0.1-0.3,0.2-0.4,0.4 c-0.2,0.4-0.2,0.8,0,1.2c0.1,0.2,0.2,0.3,0.4,0.4C1487.2,500.5,1487.6,500.5,1488,500.3"></path> <path class="st2" d="M1492.6,498c0.3,0.3,0.4,0.7,0.4,1.1v1.9h-0.6v-1.9c0-0.3-0.1-0.5-0.2-0.7c-0.2-0.2-0.4-0.3-0.7-0.2 c-0.3,0-0.6,0.1-0.8,0.3c-0.2,0.2-0.3,0.5-0.3,0.8v1.7h-0.6v-3.4h0.6v0.5c0.1-0.2,0.3-0.3,0.5-0.4c0.2-0.1,0.5-0.1,0.7-0.1 C1491.9,497.6,1492.3,497.7,1492.6,498"></path> <path class="st2" d="M1494.4,500.8c-0.3-0.1-0.5-0.4-0.6-0.6c-0.3-0.6-0.3-1.2,0-1.8c0.1-0.3,0.4-0.5,0.6-0.6 c0.3-0.1,0.6-0.2,0.9-0.2c0.3,0,0.6,0.1,0.9,0.2c0.3,0.1,0.5,0.4,0.6,0.6c0.3,0.6,0.3,1.2,0,1.8c-0.1,0.3-0.4,0.5-0.6,0.6 c-0.3,0.2-0.6,0.2-0.9,0.2C1494.9,501,1494.6,501,1494.4,500.8 M1495.8,500.3c0.2-0.1,0.3-0.2,0.4-0.4c0.2-0.4,0.2-0.8,0-1.2 c-0.1-0.2-0.2-0.3-0.4-0.4c-0.4-0.2-0.8-0.2-1.2,0c-0.2,0.1-0.3,0.2-0.4,0.4c-0.2,0.4-0.2,0.8,0,1.2c0.1,0.2,0.2,0.3,0.4,0.4 C1495,500.5,1495.5,500.5,1495.8,500.3"></path> <path class="st2" d="M1502.8,498c0.3,0.3,0.4,0.7,0.4,1.1v1.9h-0.6v-1.9c0-0.3-0.1-0.5-0.2-0.7c-0.2-0.2-0.4-0.3-0.6-0.2 c-0.3,0-0.5,0.1-0.7,0.3c-0.2,0.2-0.3,0.5-0.3,0.8v1.7h-0.6v-1.9c0-0.3-0.1-0.5-0.2-0.7c-0.2-0.2-0.4-0.3-0.6-0.2 c-0.3,0-0.5,0.1-0.7,0.3c-0.2,0.2-0.3,0.5-0.3,0.8v1.7h-0.6v-3.4h0.6v0.5c0.1-0.2,0.3-0.3,0.5-0.4c0.2-0.1,0.4-0.1,0.7-0.1 c0.2,0,0.5,0,0.7,0.2c0.2,0.1,0.4,0.3,0.5,0.5c0.1-0.2,0.3-0.4,0.5-0.5c0.2-0.1,0.5-0.2,0.8-0.2 C1502.2,497.6,1502.5,497.7,1502.8,498"></path> <path class="st2" d="M1504.6,500.8c-0.3-0.1-0.5-0.4-0.6-0.6c-0.3-0.6-0.3-1.2,0-1.8c0.1-0.3,0.4-0.5,0.6-0.6 c0.3-0.1,0.6-0.2,0.9-0.2c0.3,0,0.6,0.1,0.9,0.2c0.3,0.1,0.5,0.4,0.6,0.6c0.3,0.6,0.3,1.2,0,1.8c-0.1,0.3-0.4,0.5-0.6,0.6 c-0.3,0.2-0.6,0.2-0.9,0.2C1505.2,501,1504.9,501,1504.6,500.8 M1506.1,500.3c0.2-0.1,0.3-0.2,0.4-0.4c0.2-0.4,0.2-0.8,0-1.2 c-0.1-0.2-0.2-0.3-0.4-0.4c-0.4-0.2-0.8-0.2-1.2,0c-0.2,0.1-0.3,0.2-0.4,0.4c-0.2,0.4-0.2,0.8,0,1.2c0.1,0.2,0.2,0.3,0.4,0.4 C1505.3,500.5,1505.7,500.5,1506.1,500.3"></path> <path class="st2" d="M1512.4,496.3v4.7h-0.6v-0.5c-0.1,0.2-0.3,0.3-0.5,0.4c-0.2,0.1-0.4,0.1-0.7,0.1c-0.3,0-0.6-0.1-0.9-0.2 c-0.3-0.1-0.5-0.4-0.6-0.6c-0.3-0.6-0.3-1.2,0-1.8c0.1-0.3,0.4-0.5,0.6-0.6c0.3-0.1,0.6-0.2,0.9-0.2c0.2,0,0.5,0,0.7,0.1 c0.2,0.1,0.4,0.2,0.5,0.4v-1.9H1512.4z M1511.3,500.3c0.2-0.1,0.3-0.2,0.4-0.4c0.2-0.4,0.2-0.8,0-1.2c-0.1-0.2-0.2-0.3-0.4-0.4 c-0.4-0.2-0.8-0.2-1.2,0c-0.2,0.1-0.3,0.2-0.4,0.4c-0.2,0.4-0.2,0.8,0,1.2c0.1,0.2,0.2,0.3,0.4,0.4 C1510.5,500.5,1510.9,500.5,1511.3,500.3"></path> <path class="st2" d="M1516.4,499.5h-2.7c0,0.3,0.2,0.5,0.4,0.7c0.2,0.2,0.5,0.3,0.8,0.3c0.4,0,0.7-0.1,1-0.4l0.3,0.4 c-0.2,0.2-0.3,0.3-0.6,0.4c-0.6,0.2-1.2,0.2-1.7-0.1c-0.3-0.1-0.5-0.4-0.6-0.6c-0.2-0.3-0.2-0.6-0.2-0.9c0-0.3,0.1-0.6,0.2-0.9 c0.1-0.3,0.3-0.5,0.6-0.6c0.3-0.1,0.6-0.2,0.9-0.2c0.3,0,0.6,0.1,0.9,0.2c0.3,0.1,0.5,0.4,0.6,0.6c0.1,0.3,0.2,0.6,0.2,0.9 C1516.4,499.4,1516.4,499.4,1516.4,499.5 M1514,498.4c-0.2,0.2-0.3,0.4-0.3,0.7h2.2c0-0.3-0.1-0.5-0.3-0.7 C1515,498,1514.4,498,1514,498.4"></path> <rect x="1518.4" y="496.6" class="st2" width="0.6" height="4.4"></rect> <path class="st2" d="M1522.7,498c0.3,0.3,0.4,0.7,0.4,1.1v1.9h-0.6v-1.9c0-0.3-0.1-0.5-0.2-0.7c-0.2-0.2-0.4-0.3-0.7-0.2 c-0.3,0-0.6,0.1-0.8,0.3c-0.2,0.2-0.3,0.5-0.3,0.8v1.7h-0.6v-3.4h0.6v0.5c0.1-0.2,0.3-0.3,0.5-0.4c0.2-0.1,0.5-0.1,0.7-0.1 C1522.1,497.6,1522.5,497.7,1522.7,498"></path> <path class="st2" d="M1527,497.6l-1.5,3.4h-0.6l-1.5-3.4h0.6l1.2,2.7l1.2-2.7H1527z"></path> <path class="st2" d="M1530.3,499.5h-2.7c0,0.3,0.2,0.5,0.4,0.7c0.2,0.2,0.5,0.3,0.8,0.3c0.4,0,0.7-0.1,1-0.4l0.3,0.4 c-0.2,0.2-0.3,0.3-0.6,0.4c-0.6,0.2-1.2,0.2-1.7-0.1c-0.3-0.1-0.5-0.4-0.6-0.6c-0.2-0.3-0.2-0.6-0.2-0.9c0-0.3,0.1-0.6,0.2-0.9 c0.1-0.3,0.3-0.5,0.6-0.6c0.3-0.1,0.6-0.2,0.9-0.2c0.3,0,0.6,0.1,0.9,0.2c0.3,0.1,0.5,0.4,0.6,0.6c0.1,0.3,0.2,0.6,0.2,0.9 C1530.3,499.4,1530.3,499.4,1530.3,499.5 M1527.9,498.4c-0.2,0.2-0.3,0.4-0.3,0.7h2.2c0-0.3-0.1-0.5-0.3-0.7 C1529,498,1528.4,498,1527.9,498.4"></path> <path class="st2" d="M1531.1,500.9c-0.2-0.1-0.4-0.2-0.6-0.3l0.3-0.5c0.2,0.1,0.3,0.2,0.5,0.3c0.2,0.1,0.4,0.1,0.6,0.1 c0.5,0,0.8-0.2,0.8-0.5c0-0.1,0-0.2-0.1-0.2c-0.1-0.1-0.2-0.1-0.3-0.1c-0.1,0-0.3-0.1-0.5-0.1c-0.2,0-0.4-0.1-0.7-0.1 c-0.2-0.1-0.3-0.1-0.4-0.3c-0.1-0.2-0.2-0.4-0.2-0.6c0-0.3,0.1-0.6,0.4-0.7c0.3-0.2,0.7-0.3,1-0.3c0.2,0,0.5,0,0.7,0.1 c0.2,0,0.4,0.1,0.6,0.2l-0.3,0.5c-0.3-0.2-0.6-0.3-1-0.3c-0.2,0-0.4,0-0.6,0.1c-0.1,0.1-0.2,0.2-0.2,0.3c0,0.1,0,0.2,0.1,0.3 c0.1,0.1,0.2,0.1,0.3,0.1c0.1,0,0.3,0.1,0.5,0.1c0.2,0,0.4,0.1,0.7,0.1c0.2,0.1,0.3,0.1,0.4,0.3c0.1,0.1,0.2,0.3,0.2,0.5 c0,0.3-0.1,0.6-0.4,0.7c-0.3,0.2-0.7,0.3-1.1,0.3C1531.6,501,1531.3,501,1531.1,500.9"></path> <path class="st2" d="M1535.7,500.8c-0.1,0.1-0.2,0.1-0.3,0.2c-0.1,0-0.3,0.1-0.4,0.1c-0.3,0-0.6-0.1-0.8-0.3 c-0.2-0.2-0.3-0.5-0.3-0.8v-1.8h-0.6v-0.5h0.6v-0.7h0.6v0.7h1v0.5h-1v1.8c0,0.2,0,0.3,0.1,0.4c0.1,0.1,0.2,0.2,0.4,0.1 c0.2,0,0.3-0.1,0.5-0.2L1535.7,500.8z"></path> <path class="st2" d="M1536.2,496.9c-0.1-0.1-0.1-0.2-0.1-0.3c0-0.1,0-0.2,0.1-0.3c0.1-0.1,0.2-0.1,0.3-0.1c0.1,0,0.2,0,0.3,0.1 c0.1,0.1,0.1,0.2,0.1,0.3c0,0.1,0,0.2-0.1,0.3C1536.6,497,1536.4,497,1536.2,496.9 M1536.2,497.6h0.6v3.4h-0.6V497.6z"></path> <path class="st2" d="M1542.9,498c0.3,0.3,0.4,0.7,0.4,1.1v1.9h-0.6v-1.9c0-0.3-0.1-0.5-0.2-0.7c-0.2-0.2-0.4-0.3-0.6-0.2 c-0.3,0-0.5,0.1-0.7,0.3c-0.2,0.2-0.3,0.5-0.3,0.8v1.7h-0.6v-1.9c0-0.3-0.1-0.5-0.2-0.7c-0.2-0.2-0.4-0.3-0.6-0.2 c-0.3,0-0.5,0.1-0.7,0.3c-0.2,0.2-0.3,0.5-0.3,0.8v1.7h-0.6v-3.4h0.6v0.5c0.1-0.2,0.3-0.3,0.5-0.4c0.2-0.1,0.4-0.1,0.7-0.1 c0.2,0,0.5,0,0.7,0.2c0.2,0.1,0.4,0.3,0.5,0.5c0.1-0.2,0.3-0.4,0.5-0.5c0.2-0.1,0.5-0.2,0.8-0.2 C1542.3,497.6,1542.7,497.7,1542.9,498"></path> <path class="st2" d="M1547.2,499.5h-2.7c0,0.3,0.2,0.5,0.4,0.7c0.2,0.2,0.5,0.3,0.8,0.3c0.4,0,0.7-0.1,1-0.4l0.3,0.4 c-0.2,0.2-0.3,0.3-0.6,0.4c-0.6,0.2-1.2,0.2-1.7-0.1c-0.3-0.1-0.5-0.4-0.6-0.6c-0.2-0.3-0.2-0.6-0.2-0.9c0-0.3,0.1-0.6,0.2-0.9 c0.1-0.3,0.3-0.5,0.6-0.6c0.3-0.1,0.6-0.2,0.9-0.2c0.3,0,0.6,0.1,0.9,0.2c0.3,0.1,0.5,0.4,0.6,0.6c0.1,0.3,0.2,0.6,0.2,0.9 C1547.2,499.4,1547.2,499.4,1547.2,499.5 M1544.8,498.4c-0.2,0.2-0.3,0.4-0.3,0.7h2.2c0-0.3-0.1-0.5-0.3-0.7 C1545.9,498,1545.2,498,1544.8,498.4"></path> <path class="st2" d="M1550.6,498c0.3,0.3,0.4,0.7,0.4,1.1v1.9h-0.6v-1.9c0-0.3-0.1-0.5-0.2-0.7c-0.2-0.2-0.4-0.3-0.7-0.2 c-0.3,0-0.6,0.1-0.8,0.3c-0.2,0.2-0.3,0.5-0.3,0.8v1.7h-0.6v-3.4h0.6v0.5c0.1-0.2,0.3-0.3,0.5-0.4c0.2-0.1,0.5-0.1,0.7-0.1 C1550,497.6,1550.3,497.7,1550.6,498"></path> <path class="st2" d="M1553.8,500.8c-0.1,0.1-0.2,0.1-0.3,0.2c-0.1,0-0.3,0.1-0.4,0.1c-0.3,0-0.6-0.1-0.8-0.3 c-0.2-0.2-0.3-0.5-0.3-0.8v-1.8h-0.6v-0.5h0.6v-0.7h0.6v0.7h1v0.5h-1v1.8c0,0.2,0,0.3,0.1,0.4c0.1,0.1,0.2,0.2,0.4,0.1 c0.2,0,0.3-0.1,0.5-0.2L1553.8,500.8z"></path> <path class="st2" d="M1554.8,500.8c-0.3-0.1-0.5-0.4-0.6-0.6c-0.3-0.6-0.3-1.2,0-1.8c0.1-0.3,0.4-0.5,0.6-0.6 c0.3-0.1,0.6-0.2,0.9-0.2c0.3,0,0.6,0.1,0.9,0.2c0.3,0.1,0.5,0.4,0.6,0.6c0.3,0.6,0.3,1.2,0,1.8c-0.1,0.3-0.4,0.5-0.6,0.6 c-0.3,0.2-0.6,0.2-0.9,0.2C1555.4,501,1555.1,501,1554.8,500.8 M1556.3,500.3c0.2-0.1,0.3-0.2,0.4-0.4c0.2-0.4,0.2-0.8,0-1.2 c-0.1-0.2-0.2-0.3-0.4-0.4c-0.4-0.2-0.8-0.2-1.2,0c-0.2,0.1-0.3,0.2-0.4,0.4c-0.2,0.4-0.2,0.8,0,1.2c0.1,0.2,0.2,0.3,0.4,0.4 C1555.5,500.5,1555.9,500.5,1556.3,500.3"></path> <path class="st2" d="M1558.2,500.9c-0.2-0.1-0.4-0.2-0.6-0.3l0.3-0.5c0.2,0.1,0.3,0.2,0.5,0.3c0.2,0.1,0.4,0.1,0.6,0.1 c0.5,0,0.8-0.2,0.8-0.5c0-0.1,0-0.2-0.1-0.2c-0.1-0.1-0.2-0.1-0.3-0.1c-0.1,0-0.3-0.1-0.5-0.1c-0.2,0-0.4-0.1-0.7-0.1 c-0.2-0.1-0.3-0.1-0.4-0.3c-0.1-0.2-0.2-0.4-0.2-0.6c0-0.3,0.1-0.6,0.4-0.7c0.3-0.2,0.7-0.3,1-0.3c0.2,0,0.5,0,0.7,0.1 c0.2,0,0.4,0.1,0.6,0.2l-0.3,0.5c-0.3-0.2-0.6-0.3-1-0.3c-0.2,0-0.4,0-0.6,0.1c-0.1,0.1-0.2,0.2-0.2,0.3c0,0.1,0,0.2,0.1,0.3 c0.1,0.1,0.2,0.1,0.3,0.1c0.1,0,0.3,0.1,0.5,0.1c0.2,0,0.4,0.1,0.7,0.1c0.2,0.1,0.3,0.1,0.4,0.3c0.1,0.1,0.2,0.3,0.2,0.5 c0,0.3-0.1,0.6-0.4,0.7c-0.3,0.2-0.7,0.3-1.1,0.3C1558.7,501,1558.4,501,1558.2,500.9"></path> </g> <line class="st9" x1="175" y1="0" x2="175" y2="40.9"></line> </g> </svg> 