<svg xmlns="http://www.w3.org/2000/svg" width="415.315" height="92.717" viewBox="0 0 415.315 92.717"><defs><style>.a{fill:#00003c;}.b{fill:#8d9184;}</style></defs><g transform="translate(-1261.428 -469.536)"><path class="a" d="M1293.69,487.491c.149-4.366-3.481-8.362-11.1-8.507-5.4-.074-9.4,1.774-9.768,6.217-.293,3.7.965,4.436,3.4,5.4,1.263,1.329,11.472,2.958,13.544,3.325,2.959.522,9.326,1.852,12.73,5.33,6.213,6.512,3.326,19.311-3.4,23.675-4.59,2.964-10.88,3.7-16.874,3.778-2.733.069-9.244-.89-13.244-3.778a18.707,18.707,0,0,1-7.548-13.908h10.806a8.051,8.051,0,0,0,2.294,5.547c2.442,2.519,6.437,3.335,10.133,3.183,3.7-.072,7.178-1.182,8.584-2.516a6.42,6.42,0,0,0,.224-9.1c-3.55-3.707-14.21-3.707-21.163-6.072-5.845-1.995-10.651-6.214-9.767-14.945.888-8.584,7.105-14.944,20.274-14.944,2.887,0,12.95.219,18.2,6.88,2.811,3.623,3.549,8.654,3.106,10.431Z"/><path class="a" d="M1334.611,525a6.52,6.52,0,0,1-1.106-3.992c-3.624,3.4-6.807,5.7-12.873,5.7-8.137,0-12.133-4.589-11.841-12.358.223-5.623,2.445-11.1,11.618-12.654a41.425,41.425,0,0,0,10.432-1.847,4.269,4.269,0,0,0,2.589-4.514c0-2.518-2.071-3.629-6.808-3.629-5.919,0-6.66,3.629-6.807,6.514h-9.767c.147-12.8,11.1-13.987,16.574-13.987a27.2,27.2,0,0,1,9.473,1.479c3.995,1.634,7.177,4.888,7.177,11.249v21.9a6.341,6.341,0,0,0,2.29,4.733V525Zm-1.181-18.863c-2.956,1.776-6.95,1.623-9.62,2.142-3.178.593-5.4,3.259-4.512,6.513.594,2.365,2.441,4.07,6.879,3.328,6.147-.963,7.253-5.253,7.253-9.694Z"/><path class="a" d="M1347.34,484.914h5.624v-3.861c0-5.994,3.032-9.989,9.767-9.989h6.438v7.7h-3.625c-1.406,0-2.218.883-2.218,2.736v3.414h6.141V491.8h-6.141V525h-10.362V491.8h-5.624Z"/><path class="a" d="M1373.96,484.9h10.36v7.772h.149c.669-2.371,1.182-3.777,4.812-6.29a9.374,9.374,0,0,1,7.4-2.148v10.581c-4.441-.519-11.1-1.108-12.357,7.618V525h-10.36Z"/><path class="a" d="M1424.272,525a6.479,6.479,0,0,1-1.1-3.992c-3.625,3.4-6.808,5.7-12.875,5.7-8.142,0-12.136-4.589-11.841-12.358.223-5.623,2.442-11.1,11.618-12.654a41.409,41.409,0,0,0,10.432-1.847,4.27,4.27,0,0,0,2.589-4.514c0-2.518-2.07-3.629-6.806-3.629-5.92,0-6.66,3.629-6.808,6.514h-9.767c.151-12.8,11.1-13.987,16.575-13.987a27.214,27.214,0,0,1,9.471,1.479c3.995,1.634,7.174,4.888,7.174,11.249v21.9a6.346,6.346,0,0,0,2.3,4.733V525Zm-1.182-18.863c-2.959,1.776-6.956,1.623-9.619,2.142-3.179.593-5.4,3.259-4.513,6.513.594,2.365,2.443,4.07,6.883,3.328,6.138-.963,7.249-5.253,7.249-9.694Z"/><rect class="b" width="7.971" height="55.794" transform="translate(1457.79 469.536)"/><path class="b" d="M1513.54,487.35q4.742,4.662,4.742,13.669V525.33h-7.651V501.9q0-6.137-2.95-9.246t-8.448-3.108q-6.218,0-9.8,3.627t-3.587,10.4v21.76h-7.652V483.086h7.333v6.376a14.879,14.879,0,0,1,6.257-5.021,21.862,21.862,0,0,1,8.967-1.754q8.051,0,12.793,4.663"/><path class="b" d="M1566.66,483.085l-18.492,42.244h-7.811l-18.492-42.244h7.971l14.507,33.875,14.825-33.875Z"/><path class="b" d="M1608.67,506.759H1574.4a13.258,13.258,0,0,0,4.9,8.966,15.988,15.988,0,0,0,10.4,3.388,15.672,15.672,0,0,0,12.2-5.1l4.224,4.942a18.5,18.5,0,0,1-7.134,5.1,26.9,26.9,0,0,1-21.4-1,19.593,19.593,0,0,1-8.01-7.692,22.039,22.039,0,0,1-2.83-11.158,22.4,22.4,0,0,1,2.75-11.079,19.7,19.7,0,0,1,7.572-7.692,21.571,21.571,0,0,1,10.88-2.75,21.138,21.138,0,0,1,10.8,2.75,19.324,19.324,0,0,1,7.413,7.692,23.434,23.434,0,0,1,2.67,11.318,22.274,22.274,0,0,1-.159,2.312m-29.93-14.268a13.5,13.5,0,0,0-4.344,8.768h27.1a13.591,13.591,0,0,0-4.344-8.728,14.269,14.269,0,0,0-18.412-.04"/><path class="b" d="M1618.39,524.413a21.856,21.856,0,0,1-7.493-3.547l3.189-6.058a22.817,22.817,0,0,0,6.775,3.188,27.839,27.839,0,0,0,8.05,1.2q10.042,0,10.043-5.739a3.717,3.717,0,0,0-1.355-3.028,8.6,8.6,0,0,0-3.387-1.635q-2.032-.516-5.779-1.155a56.543,56.543,0,0,1-8.329-1.833,12.814,12.814,0,0,1-5.54-3.507,9.755,9.755,0,0,1-2.312-6.935,10.829,10.829,0,0,1,4.783-9.206q4.782-3.468,12.833-3.467a35.412,35.412,0,0,1,8.449,1.036,22.767,22.767,0,0,1,6.934,2.79l-3.268,6.057a21.975,21.975,0,0,0-12.2-3.347q-4.863,0-7.413,1.594a4.809,4.809,0,0,0-2.55,4.224,4.024,4.024,0,0,0,1.435,3.268,9.054,9.054,0,0,0,3.546,1.754q2.112.558,5.938,1.275a64.651,64.651,0,0,1,8.25,1.873,12.329,12.329,0,0,1,5.38,3.388,9.44,9.44,0,0,1,2.232,6.7,10.556,10.556,0,0,1-4.9,9.126q-4.9,3.389-13.351,3.388a35.427,35.427,0,0,1-9.963-1.395"/><path class="b" d="M1676.74,522.859a11.435,11.435,0,0,1-4.144,2.192,17.345,17.345,0,0,1-5.1.757q-6.378,0-9.883-3.427t-3.507-9.8v-23.2h-7.174v-6.3h7.174V473.84h7.652v9.246h12.115v6.3h-12.115v22.876a7.413,7.413,0,0,0,1.713,5.26,6.374,6.374,0,0,0,4.9,1.833,9.219,9.219,0,0,0,5.978-1.992Z"/><path class="b" d="M1274.812,553.235h-8.946l-1.853,4.209h-2.476l7.623-16.835h2.381l7.648,16.835h-2.525Zm-.842-1.924-3.631-8.249-3.632,8.249Z"/><path class="b" d="M1292.589,544.7v11.014a6.581,6.581,0,0,1-1.66,4.942,6.881,6.881,0,0,1-4.954,1.6,11.841,11.841,0,0,1-3.439-.493,6.8,6.8,0,0,1-2.645-1.406l1.106-1.78a6.523,6.523,0,0,0,2.2,1.214,8.343,8.343,0,0,0,2.7.445,4.542,4.542,0,0,0,3.307-1.058,4.354,4.354,0,0,0,1.07-3.222v-1.011a5.1,5.1,0,0,1-2.008,1.48,6.707,6.707,0,0,1-2.586.493,6.966,6.966,0,0,1-3.306-.782,5.814,5.814,0,0,1-2.321-2.189,6.542,6.542,0,0,1,0-6.421,5.73,5.73,0,0,1,2.321-2.176,7.054,7.054,0,0,1,3.306-.77,6.767,6.767,0,0,1,2.682.529,4.98,4.98,0,0,1,2.032,1.563V544.7Zm-4.389,9.667a3.907,3.907,0,0,0,1.563-1.479,4.132,4.132,0,0,0,.565-2.152,3.9,3.9,0,0,0-1.226-2.994,4.95,4.95,0,0,0-6.325,0,3.9,3.9,0,0,0-1.227,2.994,4.133,4.133,0,0,0,.565,2.152,3.907,3.907,0,0,0,1.563,1.479,4.774,4.774,0,0,0,2.273.529,4.724,4.724,0,0,0,2.249-.529"/><path class="b" d="M1307.491,551.839H1297.15a3.993,3.993,0,0,0,1.478,2.706,4.824,4.824,0,0,0,3.139,1.022,4.733,4.733,0,0,0,3.68-1.539l1.274,1.491a5.585,5.585,0,0,1-2.153,1.539,8.115,8.115,0,0,1-6.457-.3,5.915,5.915,0,0,1-2.417-2.32,6.658,6.658,0,0,1-.854-3.367,6.762,6.762,0,0,1,.83-3.343,5.943,5.943,0,0,1,2.285-2.321,6.51,6.51,0,0,1,3.283-.829,6.376,6.376,0,0,1,3.258.829,5.826,5.826,0,0,1,2.237,2.321,7.073,7.073,0,0,1,.8,3.415,6.562,6.562,0,0,1-.047.7m-9.031-4.3a4.062,4.062,0,0,0-1.31,2.645h8.176a4.1,4.1,0,0,0-1.311-2.633,4.3,4.3,0,0,0-5.555-.012"/><path class="b" d="M1320.45,545.984a5.534,5.534,0,0,1,1.431,4.125v7.335h-2.309v-7.071a3.912,3.912,0,0,0-.89-2.79,3.347,3.347,0,0,0-2.549-.938,3.971,3.971,0,0,0-2.958,1.095,4.274,4.274,0,0,0-1.082,3.138v6.566h-2.309V544.7H1312v1.924a4.487,4.487,0,0,1,1.888-1.516,6.6,6.6,0,0,1,2.7-.528,5.266,5.266,0,0,1,3.86,1.406"/><path class="b" d="M1332.36,556.7a3.454,3.454,0,0,1-1.251.661,5.233,5.233,0,0,1-1.539.228,4.087,4.087,0,0,1-2.982-1.033,3.949,3.949,0,0,1-1.058-2.959v-7h-2.165v-1.9h2.165v-2.789h2.309V544.7h3.655v1.9h-3.655v6.9a2.235,2.235,0,0,0,.517,1.587,1.919,1.919,0,0,0,1.479.553,2.779,2.779,0,0,0,1.8-.6Z"/><path class="b" d="M1345.661,551.839h-10.342a4,4,0,0,0,1.479,2.706,4.825,4.825,0,0,0,3.139,1.022,4.727,4.727,0,0,0,3.679-1.539l1.275,1.491a5.589,5.589,0,0,1-2.152,1.539,8.115,8.115,0,0,1-6.457-.3,5.912,5.912,0,0,1-2.418-2.32,6.658,6.658,0,0,1-.854-3.367,6.763,6.763,0,0,1,.83-3.343,5.937,5.937,0,0,1,2.285-2.321,6.509,6.509,0,0,1,3.283-.829,6.377,6.377,0,0,1,3.258.829,5.826,5.826,0,0,1,2.237,2.321,7.073,7.073,0,0,1,.806,3.415,6.606,6.606,0,0,1-.048.7m-9.031-4.3a4.073,4.073,0,0,0-1.311,2.645h8.177a4.1,4.1,0,0,0-1.311-2.633,4.3,4.3,0,0,0-5.555-.012"/><path class="b" d="M1364.512,553.235h-8.946l-1.853,4.209h-2.476l7.623-16.835h2.381l7.648,16.835h-2.525Zm-.842-1.924-3.631-8.249-3.632,8.249Z"/><path class="b" d="M1381.97,544.7v12.746h-2.188v-1.924a4.64,4.64,0,0,1-1.84,1.527,5.74,5.74,0,0,1-2.489.541,5.562,5.562,0,0,1-4.017-1.406,5.488,5.488,0,0,1-1.467-4.149V544.7h2.309v7.071a3.962,3.962,0,0,0,.89,2.8,3.323,3.323,0,0,0,2.549.949,3.8,3.8,0,0,0,2.886-1.106,4.34,4.34,0,0,0,1.059-3.126V544.7Z"/><path class="b" d="M1392.58,556.7a3.452,3.452,0,0,1-1.251.661,5.233,5.233,0,0,1-1.539.228,4.087,4.087,0,0,1-2.982-1.033,3.95,3.95,0,0,1-1.058-2.959v-7h-2.165v-1.9h2.165v-2.789h2.309V544.7h3.655v1.9h-3.655v6.9a2.234,2.234,0,0,0,.517,1.587,1.919,1.919,0,0,0,1.479.553,2.779,2.779,0,0,0,1.8-.6Z"/><path class="b" d="M1396.455,556.745a6.094,6.094,0,0,1-2.369-2.32,7.017,7.017,0,0,1,0-6.71,6.019,6.019,0,0,1,2.369-2.309,7.424,7.424,0,0,1,6.818,0,6.047,6.047,0,0,1,2.357,2.309,7.017,7.017,0,0,1,0,6.71,6.123,6.123,0,0,1-2.357,2.32,7.322,7.322,0,0,1-6.818,0m5.6-13.9-2.212-1.852-2.213,1.852h-2.092l3.2-3.126h2.213l3.2,3.126ZM1402.07,555a3.992,3.992,0,0,0,1.528-1.587,5.249,5.249,0,0,0,0-4.69,3.916,3.916,0,0,0-1.528-1.575,4.654,4.654,0,0,0-4.4,0,3.994,3.994,0,0,0-1.539,1.575,5.148,5.148,0,0,0,0,4.69,4.073,4.073,0,0,0,1.539,1.587,4.568,4.568,0,0,0,4.4,0"/><path class="b" d="M1419.38,545.984a5.535,5.535,0,0,1,1.431,4.125v7.335H1418.5v-7.071a3.912,3.912,0,0,0-.89-2.79,3.348,3.348,0,0,0-2.549-.938,3.971,3.971,0,0,0-2.958,1.095,4.275,4.275,0,0,0-1.082,3.138v6.566h-2.309V544.7h2.213v1.924a4.492,4.492,0,0,1,1.888-1.516,6.6,6.6,0,0,1,2.705-.528,5.266,5.266,0,0,1,3.86,1.406"/><path class="b" d="M1426.175,556.745a6.094,6.094,0,0,1-2.369-2.32,7.017,7.017,0,0,1,0-6.71,6.019,6.019,0,0,1,2.369-2.309,6.991,6.991,0,0,1,3.415-.829,6.919,6.919,0,0,1,3.4.829,6.041,6.041,0,0,1,2.357,2.309,7.017,7.017,0,0,1,0,6.71,6.116,6.116,0,0,1-2.357,2.32,6.83,6.83,0,0,1-3.4.842,6.9,6.9,0,0,1-3.415-.842M1431.79,555a3.993,3.993,0,0,0,1.528-1.587,5.257,5.257,0,0,0,0-4.69,3.916,3.916,0,0,0-1.528-1.575,4.654,4.654,0,0,0-4.4,0,4,4,0,0,0-1.539,1.575,5.149,5.149,0,0,0,0,4.69,4.073,4.073,0,0,0,1.539,1.587,4.568,4.568,0,0,0,4.4,0"/><path class="b" d="M1458.2,545.972a5.581,5.581,0,0,1,1.407,4.136v7.335H1457.3v-7.07a4.015,4.015,0,0,0-.854-2.79,3.133,3.133,0,0,0-2.44-.938,3.657,3.657,0,0,0-2.791,1.095,4.4,4.4,0,0,0-1.033,3.138v6.565h-2.309v-7.07a4.02,4.02,0,0,0-.854-2.79,3.134,3.134,0,0,0-2.441-.938,3.653,3.653,0,0,0-2.79,1.095,4.4,4.4,0,0,0-1.034,3.138v6.565h-2.308V544.7h2.212v1.9a4.477,4.477,0,0,1,1.828-1.5,6.114,6.114,0,0,1,2.573-.517,5.638,5.638,0,0,1,2.645.6,4.178,4.178,0,0,1,1.78,1.756,4.887,4.887,0,0,1,2.008-1.732,6.543,6.543,0,0,1,2.9-.625,5.175,5.175,0,0,1,3.812,1.395"/><path class="b" d="M1464.944,556.745a6.1,6.1,0,0,1-2.368-2.32,7.017,7.017,0,0,1,0-6.71,6.023,6.023,0,0,1,2.368-2.309,7,7,0,0,1,3.416-.829,6.922,6.922,0,0,1,3.4.829,6.041,6.041,0,0,1,2.357,2.309,7.017,7.017,0,0,1,0,6.71,6.116,6.116,0,0,1-2.357,2.32,6.833,6.833,0,0,1-3.4.842,6.908,6.908,0,0,1-3.416-.842M1470.56,555a4,4,0,0,0,1.528-1.587,5.257,5.257,0,0,0,0-4.69,3.923,3.923,0,0,0-1.528-1.575,4.654,4.654,0,0,0-4.4,0,3.994,3.994,0,0,0-1.539,1.575,5.149,5.149,0,0,0,0,4.69,4.072,4.072,0,0,0,1.539,1.587,4.568,4.568,0,0,0,4.4,0"/><path class="b" d="M1494.737,539.6v17.844h-2.213v-2.02a4.984,4.984,0,0,1-1.948,1.611,6.029,6.029,0,0,1-2.6.553,6.7,6.7,0,0,1-3.319-.817,5.857,5.857,0,0,1-2.3-2.3,7.367,7.367,0,0,1,0-6.794,5.879,5.879,0,0,1,2.3-2.285,6.7,6.7,0,0,1,3.319-.817,6.1,6.1,0,0,1,2.525.517,4.9,4.9,0,0,1,1.924,1.527V539.6ZM1490.36,555a3.966,3.966,0,0,0,1.539-1.587,5.249,5.249,0,0,0,0-4.69,3.891,3.891,0,0,0-1.539-1.575,4.631,4.631,0,0,0-4.389,0,3.981,3.981,0,0,0-1.539,1.575,5.148,5.148,0,0,0,0,4.69,4.06,4.06,0,0,0,1.539,1.587,4.544,4.544,0,0,0,4.389,0"/><path class="b" d="M1509.631,551.839H1499.29a4,4,0,0,0,1.478,2.706,4.827,4.827,0,0,0,3.139,1.022,4.73,4.73,0,0,0,3.68-1.539l1.274,1.491a5.58,5.58,0,0,1-2.152,1.539,8.117,8.117,0,0,1-6.458-.3,5.915,5.915,0,0,1-2.417-2.32,6.657,6.657,0,0,1-.853-3.367,6.762,6.762,0,0,1,.829-3.343,5.943,5.943,0,0,1,2.285-2.321,6.509,6.509,0,0,1,3.283-.829,6.377,6.377,0,0,1,3.258.829,5.826,5.826,0,0,1,2.237,2.321,7.073,7.073,0,0,1,.806,3.415,6.606,6.606,0,0,1-.048.7m-9.031-4.3a4.071,4.071,0,0,0-1.31,2.645h8.176a4.094,4.094,0,0,0-1.311-2.633,4.3,4.3,0,0,0-5.555-.012"/><rect class="b" width="2.309" height="16.778" transform="translate(1517.42 540.666)"/><path class="b" d="M1533.83,545.984a5.534,5.534,0,0,1,1.431,4.125v7.335h-2.309v-7.071a3.912,3.912,0,0,0-.89-2.79,3.347,3.347,0,0,0-2.549-.938,3.972,3.972,0,0,0-2.958,1.095,4.278,4.278,0,0,0-1.082,3.138v6.566h-2.309V544.7h2.213v1.924a4.493,4.493,0,0,1,1.888-1.516,6.6,6.6,0,0,1,2.7-.528,5.265,5.265,0,0,1,3.86,1.406"/><path class="b" d="M1549.86,544.7l-5.579,12.746h-2.357l-5.58-12.746h2.406l4.376,10.221L1547.6,544.7Z"/><path class="b" d="M1562.531,551.839h-10.342a4,4,0,0,0,1.479,2.706,4.825,4.825,0,0,0,3.139,1.022,4.729,4.729,0,0,0,3.679-1.539l1.275,1.491a5.585,5.585,0,0,1-2.153,1.539,8.115,8.115,0,0,1-6.457-.3,5.915,5.915,0,0,1-2.417-2.32,6.658,6.658,0,0,1-.854-3.367,6.763,6.763,0,0,1,.83-3.343,5.943,5.943,0,0,1,2.285-2.321,6.509,6.509,0,0,1,3.283-.829,6.377,6.377,0,0,1,3.258.829,5.833,5.833,0,0,1,2.237,2.321,7.071,7.071,0,0,1,.805,3.415,6.562,6.562,0,0,1-.047.7m-9.031-4.3a4.068,4.068,0,0,0-1.311,2.645h8.177a4.1,4.1,0,0,0-1.311-2.633,4.3,4.3,0,0,0-5.555-.012"/><path class="b" d="M1565.47,557.166a6.577,6.577,0,0,1-2.26-1.07l.961-1.827a6.916,6.916,0,0,0,2.044.961,8.4,8.4,0,0,0,2.43.361q3.03,0,3.03-1.732a1.122,1.122,0,0,0-.409-.913,2.58,2.58,0,0,0-1.022-.493q-.614-.157-1.744-.349a17.1,17.1,0,0,1-2.513-.553,3.87,3.87,0,0,1-1.671-1.058,2.942,2.942,0,0,1-.7-2.093,3.267,3.267,0,0,1,1.443-2.777,6.457,6.457,0,0,1,3.872-1.046,10.7,10.7,0,0,1,2.549.312,6.856,6.856,0,0,1,2.092.842l-.985,1.828a6.63,6.63,0,0,0-3.68-1.011,4.253,4.253,0,0,0-2.237.482,1.451,1.451,0,0,0-.769,1.274,1.213,1.213,0,0,0,.433.986,2.736,2.736,0,0,0,1.07.53q.636.168,1.792.384a19.661,19.661,0,0,1,2.489.565,3.724,3.724,0,0,1,1.623,1.022,2.849,2.849,0,0,1,.673,2.021,3.185,3.185,0,0,1-1.479,2.753,6.989,6.989,0,0,1-4.028,1.022,10.666,10.666,0,0,1-3.006-.421"/><path class="b" d="M1583.07,556.7a3.452,3.452,0,0,1-1.251.661,5.233,5.233,0,0,1-1.539.228,4.088,4.088,0,0,1-2.982-1.033,3.95,3.95,0,0,1-1.058-2.959v-7h-2.165v-1.9h2.165v-2.789h2.309V544.7h3.655v1.9h-3.655v6.9a2.234,2.234,0,0,0,.517,1.587,1.92,1.92,0,0,0,1.479.553,2.779,2.779,0,0,0,1.8-.6Z"/><path class="b" d="M1584.94,541.811a1.411,1.411,0,0,1-.45-1.058,1.453,1.453,0,0,1,.45-1.07,1.488,1.488,0,0,1,1.11-.444,1.557,1.557,0,0,1,1.12.42,1.376,1.376,0,0,1,.45,1.046,1.477,1.477,0,0,1-.45,1.094,1.636,1.636,0,0,1-2.23.012m-.04,2.886h2.309v12.746H1584.9Z"/><path class="b" d="M1610.4,545.972a5.581,5.581,0,0,1,1.407,4.136v7.335H1609.5v-7.07a4.021,4.021,0,0,0-.854-2.79,3.134,3.134,0,0,0-2.441-.938,3.653,3.653,0,0,0-2.789,1.095,4.392,4.392,0,0,0-1.034,3.138v6.565h-2.309v-7.07a4.021,4.021,0,0,0-.854-2.79,3.134,3.134,0,0,0-2.441-.938,3.657,3.657,0,0,0-2.79,1.095,4.4,4.4,0,0,0-1.034,3.138v6.565h-2.309V544.7h2.213v1.9a4.478,4.478,0,0,1,1.828-1.5,6.114,6.114,0,0,1,2.573-.517,5.638,5.638,0,0,1,2.645.6,4.177,4.177,0,0,1,1.78,1.756,4.893,4.893,0,0,1,2.008-1.732,6.544,6.544,0,0,1,2.9-.625,5.177,5.177,0,0,1,3.812,1.395"/><path class="b" d="M1626.571,551.839H1616.23a4,4,0,0,0,1.478,2.706,4.827,4.827,0,0,0,3.139,1.022,4.729,4.729,0,0,0,3.68-1.539l1.274,1.491a5.582,5.582,0,0,1-2.152,1.539,8.117,8.117,0,0,1-6.458-.3,5.915,5.915,0,0,1-2.417-2.32,6.656,6.656,0,0,1-.853-3.367,6.763,6.763,0,0,1,.829-3.343,5.942,5.942,0,0,1,2.285-2.321,6.509,6.509,0,0,1,3.283-.829,6.377,6.377,0,0,1,3.258.829,5.826,5.826,0,0,1,2.237,2.321,7.073,7.073,0,0,1,.806,3.415,6.606,6.606,0,0,1-.048.7m-9.031-4.3a4.072,4.072,0,0,0-1.31,2.645h8.176a4.1,4.1,0,0,0-1.311-2.633,4.3,4.3,0,0,0-5.555-.012"/><path class="b" d="M1639.53,545.984a5.535,5.535,0,0,1,1.431,4.125v7.335h-2.309v-7.071a3.912,3.912,0,0,0-.89-2.79,3.347,3.347,0,0,0-2.549-.938,3.971,3.971,0,0,0-2.958,1.095,4.274,4.274,0,0,0-1.082,3.138v6.566h-2.309V544.7h2.213v1.924a4.486,4.486,0,0,1,1.888-1.516,6.6,6.6,0,0,1,2.705-.528,5.267,5.267,0,0,1,3.86,1.406"/><path class="b" d="M1651.44,556.7a3.452,3.452,0,0,1-1.251.661,5.233,5.233,0,0,1-1.539.228,4.088,4.088,0,0,1-2.982-1.033,3.95,3.95,0,0,1-1.058-2.959v-7h-2.165v-1.9h2.165v-2.789h2.309V544.7h3.655v1.9h-3.655v6.9a2.234,2.234,0,0,0,.517,1.587,1.92,1.92,0,0,0,1.479.553,2.779,2.779,0,0,0,1.8-.6Z"/><path class="b" d="M1655.314,556.745a6.092,6.092,0,0,1-2.368-2.32,7.017,7.017,0,0,1,0-6.71,6.017,6.017,0,0,1,2.368-2.309,7,7,0,0,1,3.416-.829,6.919,6.919,0,0,1,3.4.829,6.041,6.041,0,0,1,2.357,2.309,7.017,7.017,0,0,1,0,6.71,6.116,6.116,0,0,1-2.357,2.32,6.83,6.83,0,0,1-3.4.842,6.908,6.908,0,0,1-3.416-.842M1660.93,555a3.99,3.99,0,0,0,1.527-1.587,5.249,5.249,0,0,0,0-4.69,3.914,3.914,0,0,0-1.527-1.575,4.654,4.654,0,0,0-4.4,0,3.994,3.994,0,0,0-1.539,1.575,5.149,5.149,0,0,0,0,4.69,4.072,4.072,0,0,0,1.539,1.587,4.568,4.568,0,0,0,4.4,0"/><path class="b" d="M1668.23,557.166a6.576,6.576,0,0,1-2.26-1.07l.961-1.827a6.909,6.909,0,0,0,2.045.961,8.388,8.388,0,0,0,2.428.361q3.031,0,3.031-1.732a1.122,1.122,0,0,0-.409-.913,2.587,2.587,0,0,0-1.022-.493q-.614-.157-1.744-.349a17.106,17.106,0,0,1-2.513-.553,3.87,3.87,0,0,1-1.671-1.058,2.942,2.942,0,0,1-.7-2.093,3.267,3.267,0,0,1,1.443-2.777,6.459,6.459,0,0,1,3.872-1.046,10.688,10.688,0,0,1,2.549.312,6.857,6.857,0,0,1,2.092.842l-.985,1.828a6.631,6.631,0,0,0-3.68-1.011,4.247,4.247,0,0,0-2.236.482,1.449,1.449,0,0,0-.77,1.274,1.213,1.213,0,0,0,.433.986,2.737,2.737,0,0,0,1.07.53q.637.168,1.792.384a19.661,19.661,0,0,1,2.489.565,3.723,3.723,0,0,1,1.623,1.022,2.848,2.848,0,0,1,.673,2.021,3.182,3.182,0,0,1-1.479,2.753,6.989,6.989,0,0,1-4.028,1.022,10.666,10.666,0,0,1-3.006-.421"/></g></svg>